<?xml version="1.0" encoding="UTF-8" standalone="no"?>
<svg
   xmlns:dc="http://purl.org/dc/elements/1.1/"
   xmlns:cc="http://creativecommons.org/ns#"
   xmlns:rdf="http://www.w3.org/1999/02/22-rdf-syntax-ns#"
   xmlns:svg="http://www.w3.org/2000/svg"
   xmlns="http://www.w3.org/2000/svg"
   xmlns:sodipodi="http://sodipodi.sourceforge.net/DTD/sodipodi-0.dtd"
   xmlns:inkscape="http://www.inkscape.org/namespaces/inkscape"
   version="1.1"
   x="0px"
   y="0px"
   viewBox="0 0 1000 1000"
   enable-background="new 0 0 1000 1000"
   xml:space="preserve"
   id="svg18"
   sodipodi:docname="missing-table.svg"
   inkscape:version="1.0.1 (c497b03c, 2020-09-10)"><defs
   id="defs22" /><sodipodi:namedview
   pagecolor="#ffffff"
   bordercolor="#666666"
   borderopacity="1"
   objecttolerance="10"
   gridtolerance="10"
   guidetolerance="10"
   inkscape:pageopacity="0"
   inkscape:pageshadow="2"
   inkscape:window-width="1507"
   inkscape:window-height="1199"
   id="namedview20"
   showgrid="false"
   inkscape:zoom="1.008"
   inkscape:cx="500"
   inkscape:cy="500"
   inkscape:window-x="0"
   inkscape:window-y="23"
   inkscape:window-maximized="0"
   inkscape:current-layer="svg18" />
<metadata
   id="metadata10"> Svg Vector Icons : http://www.onlinewebfonts.com/icon <rdf:RDF><cc:Work
     rdf:about=""><dc:format>image/svg+xml</dc:format><dc:type
       rdf:resource="http://purl.org/dc/dcmitype/StillImage" /></cc:Work></rdf:RDF></metadata>
<g
   id="g16"
   style="fill:#ff0000"><g
     transform="matrix(1 0 0 -1 0 1952)"
     id="g14"
     style="fill:#ff0000"><path
       d="M990,1141.7v620.7c0,18-14.6,32.7-32.7,32.7H42.7c-18,0-32.7-14.6-32.7-32.7v-620.7c0-18,14.6-32.7,32.7-32.7h914.7C991.7,1109,990,1141.7,990,1141.7L990,1141.7z M271.3,1141.7H42.7v130.7h228.7V1141.7L271.3,1141.7z M271.3,1305H42.7v130.7h228.7V1305z M271.3,1468.3H42.7V1599h228.7V1468.3z M271.3,1631.7H42.7v130.7h228.7V1631.7z M499,1141.7H304v130.7h196L499,1141.7z M499,1305H304v130.7h196L499,1305z M304,1468.3l0,130.7h195l1-130.7H304L304,1468.3z M500,1631.7H304v130.7h196V1631.7z M728.7,1141.7h-195l-2,130.7h197V1141.7L728.7,1141.7z M728.7,1305h-195l-2,130.7h197V1305L728.7,1305z M728.7,1468.3h-196l-1,130.7h197V1468.3L728.7,1468.3z M728.7,1631.7h-196l-1,130.7h197V1631.7L728.7,1631.7z M957.3,1141.7h-196l-1,130.7h197V1141.7L957.3,1141.7z M957.3,1305h-196l-1,130.7h197V1305L957.3,1305z M957.3,1468.3h-197V1599h197V1468.3L957.3,1468.3z M957.3,1631.7h-196l-1,130.7h197V1631.7L957.3,1631.7z M238.7,1403H75.3v-65.3h163.3V1403z M238.7,1239.7H75.3v-65.3h163.3V1239.7z M238.7,1566.3H75.3V1501h163.3V1566.3z M467.3,1729.7H336.7v-65.3h130.7V1729.7z M696,1729.7H565.3v-65.3H696V1729.7z M238.7,1729.7H75.3v-65.3h163.3V1729.7z M924.7,1729.7H794v-65.3h130.7V1729.7z"
       id="path12"
       style="fill:#ff0000" /></g></g>
</svg>
